<svg version="1" xmlns="http://www.w3.org/2000/svg" width="341.333" height="341.333" viewBox="0 0 256.000000 256.000000"><path d="M119.4 32.7c-1.4 3.2-3.5 7.8-4.6 10.3-1.2 2.5-3.4 7.4-5.1 11-1.6 3.6-6.6 14.8-11.2 25-4.5 10.2-11.2 25.2-14.9 33.3-3.6 8.1-6.6 15-6.6 15.3 0 .4 7.1 16.3 33.2 74.4 8.9 19.9 11.3 25 11.8 25 .3 0 .5-45 .5-100s-.1-100-.3-100c-.2 0-1.5 2.6-2.8 5.7zM134 34.5c-.2 20.7-.1 192.7.2 193 .2.2 7.5-15.7 16.2-35.3 16.3-36.5 19.3-43.2 25.2-56.1 1.9-4 3.4-7.9 3.4-8.5 0-.8-34.3-78.2-43.7-98.6-1-2.1-1.2-1.4-1.3 5.5z"/><path d="M59.6 76.9l-48.8 48.8 49.1 49.1c27 27 49.1 48.8 49.1 48.5 0-.5-7.5-17.6-12.8-29.3C83.6 166.3 66 126.6 66 125.8c0-.8 5.3-12.8 23-52.3 16.2-36 20.1-44.8 19.8-45.1-.2-.2-22.3 21.6-49.2 48.5zM147 28.1c0 .4 11.7 26.8 17.5 39.4.7 1.6 6.9 15.4 13.8 30.6l12.4 27.6-4.5 9.9c-19.5 43.7-25.8 57.7-28.3 63.2-1.6 3.5-2.9 6.5-2.9 6.7 0 .2-1.8 4.2-4 8.9s-4 8.8-4 9.2c0 .4 22.1-21.5 49.2-48.5l49.2-49.2-49.2-49.2C169.1 49.6 147 27.8 147 28.1z"/></svg>